<svg width="369" height="50" viewBox="0 0 369 50" fill="none" xmlns="http://www.w3.org/2000/svg">
<g clip-path="url(#clip0_443_1262)">
<path d="M0 10C0 4.47715 4.47715 0 10 0H40C45.5228 0 50 4.47715 50 10V40C50 45.5228 45.5228 50 40 50H10C4.47715 50 0 45.5228 0 40V10Z" fill="#4932FE"/>
<path d="M30.87 30.8696C34.1117 27.6279 34.1117 22.3721 30.87 19.1305C27.6284 15.8888 22.3726 15.8888 19.1309 19.1305C15.8893 22.3721 15.8893 27.6279 19.1309 30.8696L14.6425 35.358C8.9219 29.6375 8.9219 20.3626 14.6425 14.642C20.363 8.92144 29.6379 8.92144 35.3585 14.642C41.0791 20.3626 41.0791 29.6375 35.3585 35.358C29.6379 41.0786 20.363 41.0786 14.6425 35.358L19.1309 30.8696C22.3726 34.1112 27.6284 34.1112 30.87 30.8696Z" fill="url(#paint0_linear_443_1262)"/>
</g>
<path d="M81.9688 25.5156C81.9688 27.3203 81.625 28.8789 80.9375 30.1914C80.25 31.5039 79.3047 32.5078 78.1016 33.2031C76.9062 33.8906 75.5547 34.2344 74.0469 34.2344C72.5312 34.2344 71.1719 33.8906 69.9688 33.2031C68.7656 32.5078 67.8203 31.5039 67.1328 30.1914C66.4453 28.8711 66.1016 27.3125 66.1016 25.5156C66.1016 23.7109 66.4453 22.1523 67.1328 20.8398C67.8203 19.5273 68.7656 18.5273 69.9688 17.8398C71.1719 17.1445 72.5312 16.7969 74.0469 16.7969C75.5547 16.7969 76.9062 17.1445 78.1016 17.8398C79.3047 18.5273 80.25 19.5273 80.9375 20.8398C81.625 22.1523 81.9688 23.7109 81.9688 25.5156ZM69.6875 25.5156C69.6875 26.7031 69.8633 27.7188 70.2148 28.5625C70.5742 29.3984 71.082 30.0312 71.7383 30.4609C72.3945 30.8906 73.1641 31.1094 74.0469 31.1172C74.9219 31.1094 75.6836 30.8906 76.332 30.4609C76.9883 30.0234 77.4922 29.3867 77.8438 28.5508C78.2031 27.7148 78.3828 26.7031 78.3828 25.5156C78.3828 24.3281 78.2031 23.3164 77.8438 22.4805C77.4922 21.6367 76.9883 21 76.332 20.5703C75.6836 20.1406 74.9219 19.9219 74.0469 19.9141C73.1641 19.9219 72.3945 20.1406 71.7383 20.5703C71.082 21 70.5742 21.6367 70.2148 22.4805C69.8633 23.3164 69.6875 24.3281 69.6875 25.5156ZM84.4297 21.2734H87.8516V23.4062H87.9922C88.2891 22.7656 88.7266 22.2227 89.3047 21.7773C89.8828 21.332 90.6562 21.1094 91.625 21.1094C92.5859 21.1094 93.457 21.3594 94.2383 21.8594C95.0195 22.3516 95.6367 23.0898 96.0898 24.0742C96.5508 25.0508 96.7812 26.2422 96.7812 27.6484C96.7812 29.0234 96.5586 30.207 96.1133 31.1992C95.668 32.1836 95.0547 32.9336 94.2734 33.4492C93.4922 33.957 92.6094 34.2109 91.625 34.2109C90.6797 34.2109 89.9102 33.9961 89.3164 33.5664C88.7305 33.1289 88.2891 32.5938 87.9922 31.9609H87.8984V38.7812H84.4297V21.2734ZM87.8281 27.5898C87.8281 28.7617 88.0625 29.6953 88.5312 30.3906C89.0078 31.0859 89.6719 31.4375 90.5234 31.4453C91.3828 31.4375 92.0508 31.0898 92.5273 30.4023C93.0039 29.7148 93.2422 28.8008 93.2422 27.6602C93.2422 26.5117 93.0078 25.5938 92.5391 24.9062C92.0703 24.2188 91.3984 23.875 90.5234 23.875C89.6719 23.875 89.0078 24.207 88.5312 24.8711C88.0625 25.5352 87.8281 26.4414 87.8281 27.5898ZM105.734 23.875H103.344V30.0859C103.336 30.5625 103.434 30.8945 103.637 31.082C103.848 31.2617 104.148 31.3594 104.539 31.375C104.898 31.375 105.359 31.3516 105.922 31.3047V34.0469C105.406 34.125 104.777 34.1641 104.035 34.1641C102.738 34.1641 101.719 33.8672 100.977 33.2734C100.234 32.6719 99.8672 31.7734 99.875 30.5781V23.875H98.1172V21.2734H99.875V18.2266H103.344V21.2734H105.734V23.875ZM107.914 21.2734H111.383V34H107.914V21.2734ZM109.648 19.6094C109.305 19.6094 108.988 19.5312 108.699 19.375C108.41 19.2109 108.18 18.9961 108.008 18.7305C107.836 18.457 107.75 18.1641 107.75 17.8516C107.75 17.5312 107.836 17.2344 108.008 16.9609C108.18 16.6875 108.41 16.4727 108.699 16.3164C108.988 16.1523 109.305 16.0703 109.648 16.0703C109.984 16.0703 110.297 16.1523 110.586 16.3164C110.875 16.4727 111.102 16.6875 111.266 16.9609C111.438 17.2344 111.523 17.5312 111.523 17.8516C111.523 18.1641 111.438 18.457 111.266 18.7305C111.102 18.9961 110.875 19.2109 110.586 19.375C110.297 19.5312 109.984 19.6094 109.648 19.6094ZM119.797 34.2578C118.531 34.2578 117.426 33.9844 116.48 33.4375C115.543 32.8828 114.82 32.1094 114.312 31.1172C113.812 30.125 113.562 28.9766 113.562 27.6719C113.562 26.3672 113.812 25.2227 114.312 24.2383C114.82 23.2461 115.543 22.4766 116.48 21.9297C117.426 21.3828 118.531 21.1094 119.797 21.1094C121.062 21.1094 122.164 21.3828 123.102 21.9297C124.047 22.4766 124.773 23.2461 125.281 24.2383C125.797 25.2227 126.055 26.3672 126.055 27.6719C126.055 28.9766 125.797 30.125 125.281 31.1172C124.773 32.1094 124.047 32.8828 123.102 33.4375C122.164 33.9844 121.062 34.2578 119.797 34.2578ZM117.078 27.6719C117.078 28.4297 117.18 29.1016 117.383 29.6875C117.594 30.2656 117.906 30.7227 118.32 31.0586C118.734 31.3945 119.234 31.5625 119.82 31.5625C120.391 31.5625 120.879 31.3984 121.285 31.0703C121.691 30.7344 121.996 30.2773 122.199 29.6992C122.41 29.1211 122.516 28.4609 122.516 27.7188C122.516 26.9531 122.414 26.2734 122.211 25.6797C122.008 25.0781 121.703 24.6094 121.297 24.2734C120.891 23.9297 120.398 23.7578 119.82 23.7578C119.234 23.7578 118.734 23.9258 118.32 24.2617C117.906 24.5977 117.594 25.0625 117.383 25.6562C117.18 26.2422 117.078 26.9141 117.078 27.6719ZM131.703 34H128.234V21.2734H131.539V23.5H131.68C131.969 22.7578 132.445 22.1758 133.109 21.7539C133.773 21.3242 134.57 21.1094 135.5 21.1094C136.383 21.1094 137.152 21.3047 137.809 21.6953C138.473 22.0781 138.984 22.6289 139.344 23.3477C139.703 24.0664 139.883 24.9141 139.883 25.8906V34H136.438V26.5C136.43 25.7109 136.223 25.0977 135.816 24.6602C135.418 24.2148 134.859 23.9922 134.141 23.9922C133.406 23.9922 132.816 24.2266 132.371 24.6953C131.926 25.1641 131.703 25.8125 131.703 26.6406V34ZM149.844 25.0469C149.766 24.6016 149.543 24.2461 149.176 23.9805C148.809 23.7148 148.336 23.5781 147.758 23.5703C147.195 23.5781 146.727 23.7031 146.352 23.9453C145.977 24.1797 145.789 24.4883 145.789 24.8711C145.789 25.1758 145.914 25.4375 146.164 25.6562C146.422 25.8672 146.844 26.0312 147.43 26.1484L149.703 26.6172C150.945 26.875 151.867 27.2852 152.469 27.8477C153.07 28.4102 153.375 29.1484 153.383 30.0625C153.383 30.8906 153.145 31.6211 152.668 32.2539C152.199 32.8867 151.539 33.3789 150.688 33.7305C149.836 34.082 148.852 34.2578 147.734 34.2578C146.602 34.2578 145.621 34.0977 144.793 33.7773C143.973 33.4492 143.324 32.9844 142.848 32.3828C142.379 31.7734 142.094 31.0547 141.992 30.2266H145.484C145.562 30.7188 145.793 31.0938 146.176 31.3516C146.566 31.6094 147.086 31.7422 147.734 31.75C148.375 31.7422 148.887 31.6211 149.27 31.3867C149.652 31.1445 149.844 30.8203 149.844 30.4141C149.844 30.0859 149.703 29.8164 149.422 29.6055C149.141 29.3945 148.703 29.2266 148.109 29.1016L146 28.6797C144.789 28.4375 143.875 28.0117 143.258 27.4023C142.641 26.793 142.336 26.0156 142.344 25.0703C142.344 24.2656 142.562 23.5664 143 22.9727C143.438 22.3711 144.059 21.9102 144.863 21.5898C145.676 21.2695 146.625 21.1094 147.711 21.1094C148.766 21.1094 149.688 21.2695 150.477 21.5898C151.266 21.9102 151.883 22.3672 152.328 22.9609C152.781 23.5469 153.039 24.2422 153.102 25.0469H149.844ZM161.117 17.0312H164.633V24.0625H171.992V17.0312H175.531V34H171.992V26.9688H164.633V34H161.117V17.0312ZM186.477 21.2734H189.945V34H186.617V31.7031H186.477C186.18 32.4609 185.695 33.0625 185.023 33.5078C184.352 33.9453 183.547 34.1641 182.609 34.1641C181.766 34.1641 181.02 33.9727 180.371 33.5898C179.723 33.1992 179.219 32.6445 178.859 31.9258C178.5 31.207 178.32 30.3594 178.32 29.3828V21.2734H181.789V28.7734C181.789 29.5234 181.988 30.1211 182.387 30.5664C182.793 31.0039 183.336 31.2266 184.016 31.2344C184.453 31.2266 184.859 31.1211 185.234 30.918C185.609 30.7148 185.91 30.4141 186.137 30.0156C186.363 29.6172 186.477 29.1406 186.477 28.5859V21.2734ZM192.711 17.0312H196.18V23.4062H196.273C196.57 22.7656 197.008 22.2227 197.586 21.7773C198.164 21.332 198.938 21.1094 199.906 21.1094C200.867 21.1094 201.738 21.3594 202.52 21.8594C203.301 22.3516 203.922 23.0898 204.383 24.0742C204.852 25.0508 205.086 26.2422 205.086 27.6484C205.086 29.0234 204.859 30.207 204.406 31.1992C203.953 32.1836 203.336 32.9336 202.555 33.4492C201.773 33.957 200.891 34.2109 199.906 34.2109C198.961 34.2109 198.195 33.9961 197.609 33.5664C197.023 33.1289 196.578 32.5938 196.273 31.9609H196.133V34H192.711V17.0312ZM196.109 27.5898C196.109 28.3633 196.215 29.0391 196.426 29.6172C196.637 30.1953 196.945 30.6445 197.352 30.9648C197.758 31.2852 198.242 31.4453 198.805 31.4453C199.664 31.4375 200.332 31.0898 200.809 30.4023C201.285 29.7148 201.523 28.8008 201.523 27.6602C201.523 26.5117 201.289 25.5938 200.82 24.9062C200.352 24.2188 199.68 23.875 198.805 23.875C197.961 23.875 197.301 24.2109 196.824 24.8828C196.348 25.5469 196.109 26.4492 196.109 27.5898ZM225.172 22.8672H225.289L228.781 17.0312H232.766L227.586 25.5156L232.883 34H228.805L225.289 28.1641H225.172L221.656 34H217.602L222.922 25.5156L217.695 17.0312H221.703L225.172 22.8672ZM264.664 29.1016H260.094V36.1562H257.047V29.1016H252.688V36.1562H249.617V29.1016H245.141V26.6875H264.664V29.1016ZM247.109 20.3594C247.109 19.3906 247.434 18.543 248.082 17.8164C248.73 17.0898 249.637 16.5273 250.801 16.1289C251.973 15.7305 253.32 15.5312 254.844 15.5312C256.367 15.5312 257.715 15.7305 258.887 16.1289C260.066 16.5273 260.984 17.0898 261.641 17.8164C262.297 18.543 262.625 19.3906 262.625 20.3594C262.625 21.3047 262.297 22.1328 261.641 22.8438C260.984 23.5469 260.066 24.0898 258.887 24.4727C257.715 24.8555 256.367 25.0469 254.844 25.0469C253.328 25.0469 251.984 24.8555 250.812 24.4727C249.641 24.0898 248.73 23.5469 248.082 22.8438C247.434 22.1328 247.109 21.3047 247.109 20.3594ZM250.18 20.3594C250.172 21.1016 250.582 21.6758 251.41 22.082C252.246 22.4883 253.391 22.6953 254.844 22.7031C256.305 22.6953 257.449 22.4883 258.277 22.082C259.113 21.6758 259.531 21.1016 259.531 20.3594C259.531 19.5859 259.113 18.9883 258.277 18.5664C257.449 18.1445 256.305 17.9297 254.844 17.9219C253.391 17.9297 252.246 18.1445 251.41 18.5664C250.582 18.9883 250.172 19.5859 250.18 20.3594ZM274.227 19.0469C274.219 19.9219 274.398 20.7695 274.766 21.5898C275.141 22.4023 275.711 23.1328 276.477 23.7812C277.242 24.4219 278.188 24.9141 279.312 25.2578L277.789 27.6016C276.625 27.2266 275.617 26.6797 274.766 25.9609C273.922 25.2344 273.254 24.375 272.762 23.3828C272.262 24.4688 271.574 25.4102 270.699 26.207C269.824 26.9961 268.773 27.5938 267.547 28L266 25.6562C267.141 25.2891 268.098 24.7617 268.871 24.0742C269.652 23.3867 270.23 22.6094 270.605 21.7422C270.988 20.875 271.18 19.9766 271.18 19.0469V18.7422H266.797V16.3516H278.516V18.7422H274.227V19.0469ZM269.469 28.8672H272.492V33.3906H284.328V35.7812H269.469V28.8672ZM280.766 14.8516H283.766V30.2734H280.766V14.8516ZM306.148 29.8984H297.828V36.1562H294.875V29.8984H286.625V27.4609H306.148V29.8984ZM289.086 15.6953H303.828V18.0391H292.016V19.6328H303.383V21.9297H292.016V23.5469H304.062V25.9141H289.086V15.6953ZM315.266 20.6406C315.258 21.7578 315.453 22.8789 315.852 24.0039C316.25 25.1289 316.84 26.1562 317.621 27.0859C318.41 28.0156 319.367 28.7422 320.492 29.2656L318.828 31.6094C317.68 31.0781 316.68 30.3086 315.828 29.3008C314.977 28.2852 314.301 27.1133 313.801 25.7852C313.309 27.2383 312.621 28.5234 311.738 29.6406C310.863 30.75 309.828 31.5859 308.633 32.1484L306.898 29.7812C308.039 29.25 309.012 28.4961 309.816 27.5195C310.621 26.543 311.227 25.457 311.633 24.2617C312.047 23.0586 312.258 21.8516 312.266 20.6406V19.3281H307.742V16.8906H319.555V19.3281H315.266V20.6406ZM321.219 14.8281H324.219V22.9609H327.359V25.4688H324.219V36.1562H321.219V14.8281ZM336.125 18.4844C336.125 19.4375 336.301 20.3477 336.652 21.2148C337.004 22.082 337.543 22.8594 338.27 23.5469C338.996 24.2266 339.906 24.75 341 25.1172L339.383 27.4609C338.281 27.0547 337.332 26.4766 336.535 25.7266C335.746 24.9766 335.121 24.0938 334.66 23.0781C334.191 24.2266 333.535 25.2188 332.691 26.0547C331.848 26.8828 330.82 27.5156 329.609 27.9531L327.992 25.6094C329.141 25.2344 330.094 24.6836 330.852 23.957C331.617 23.2305 332.18 22.3984 332.539 21.4609C332.906 20.5156 333.094 19.5156 333.102 18.4609V16.1406H336.125V18.4844ZM331.906 28.9375H334.93V33.3906H346.555V35.7812H331.906V28.9375ZM339.125 19.375H343.133V14.8516H346.109V30.6016H343.133V21.7891H339.125V19.375ZM368.328 25.6562H360.078V27.0156H365.961V32.4766H354.078V33.7656H366.523V36.0156H351.148V30.3672H363.008V29.2656H351.125V27.0156H357.078V25.6562H348.875V23.2891H368.328V25.6562ZM351.289 15.4375H365.867V22.1641H351.289V15.4375ZM362.891 19.8672V17.7578H354.219V19.8672H362.891Z" fill="white"/>
<defs>
<linearGradient id="paint0_linear_443_1262" x1="35.3585" y1="14.642" x2="14.6425" y2="35.358" gradientUnits="userSpaceOnUse">
<stop stop-color="#CDC7FF"/>
<stop offset="0.399038" stop-color="white"/>
</linearGradient>
<clipPath id="clip0_443_1262">
<rect width="50" height="50" fill="white"/>
</clipPath>
</defs>
</svg>
