<?xml version="1.0" encoding="utf-8"?>
<!-- Generator: Adobe Illustrator 16.0.0, SVG Export Plug-In . SVG Version: 6.00 Build 0)  -->
<!DOCTYPE svg PUBLIC "-//W3C//DTD SVG 1.1//EN" "http://www.w3.org/Graphics/SVG/1.1/DTD/svg11.dtd">
<svg version="1.1" id="Layer_1" xmlns="http://www.w3.org/2000/svg" xmlns:xlink="http://www.w3.org/1999/xlink" x="0px" y="0px"
	 width="369px" height="50px" viewBox="0 0 369 50" enable-background="new 0 0 369 50" xml:space="preserve">
<g>
	<defs>
		<rect id="SVGID_1_" width="50" height="50"/>
	</defs>
	<clipPath id="SVGID_2_">
		<use xlink:href="#SVGID_1_"  overflow="visible"/>
	</clipPath>
	<g clip-path="url(#SVGID_2_)">
		<path fill="#4932FE" d="M0,10C0,4.477,4.477,0,10,0h30c5.523,0,10,4.477,10,10v30c0,5.523-4.477,10-10,10H10
			C4.477,50,0,45.523,0,40V10z"/>
		
			<linearGradient id="SVGID_3_" gradientUnits="userSpaceOnUse" x1="-506.6816" y1="99.6982" x2="-527.3976" y2="78.9822" gradientTransform="matrix(1 0 0 -1 542.04 114.3398)">
			<stop  offset="0" style="stop-color:#CDC7FF"/>
			<stop  offset="0.399" style="stop-color:#FFFFFF"/>
		</linearGradient>
		<path fill="url(#SVGID_3_)" d="M30.87,30.869c3.242-3.241,3.242-8.497,0-11.739s-8.498-3.242-11.739,0s-3.242,8.498,0,11.739
			l-4.488,4.488c-5.721-5.72-5.721-14.995,0-20.715c5.72-5.721,14.995-5.721,20.716,0s5.721,14.996,0,20.715
			c-5.721,5.721-14.996,5.721-20.716,0l4.488-4.488C22.373,34.111,27.628,34.111,30.87,30.869z"/>
	</g>
</g>
<path fill="#1A2029" d="M81.969,25.516c0,1.805-0.344,3.363-1.031,4.676s-1.633,2.316-2.836,3.012
	c-1.195,0.688-2.547,1.031-4.055,1.031c-1.516,0-2.875-0.344-4.078-1.031c-1.203-0.695-2.148-1.699-2.836-3.012
	c-0.688-1.32-1.031-2.879-1.031-4.676c0-1.805,0.344-3.363,1.031-4.676s1.633-2.313,2.836-3c1.203-0.695,2.563-1.043,4.078-1.043
	c1.508,0,2.859,0.348,4.055,1.043c1.203,0.688,2.148,1.688,2.836,3S81.969,23.711,81.969,25.516z M69.688,25.516
	c0,1.188,0.176,2.203,0.527,3.047c0.359,0.836,0.867,1.469,1.523,1.898s1.426,0.648,2.309,0.656
	c0.875-0.008,1.637-0.227,2.285-0.656c0.656-0.438,1.16-1.074,1.512-1.91c0.359-0.836,0.539-1.848,0.539-3.035
	s-0.18-2.199-0.539-3.035c-0.352-0.844-0.855-1.48-1.512-1.91c-0.648-0.43-1.41-0.648-2.285-0.656
	c-0.883,0.008-1.652,0.227-2.309,0.656s-1.164,1.066-1.523,1.91C69.863,23.316,69.688,24.328,69.688,25.516z M84.43,21.273h3.422
	v2.133h0.141c0.297-0.641,0.734-1.184,1.313-1.629s1.352-0.668,2.32-0.668c0.961,0,1.832,0.25,2.613,0.75
	c0.781,0.492,1.398,1.23,1.852,2.215c0.461,0.977,0.691,2.168,0.691,3.574c0,1.375-0.223,2.559-0.668,3.551
	c-0.445,0.984-1.059,1.734-1.84,2.25c-0.781,0.508-1.664,0.762-2.648,0.762c-0.945,0-1.715-0.215-2.309-0.645
	c-0.586-0.438-1.027-0.973-1.324-1.605h-0.094v6.82H84.43V21.273z M87.828,27.59c0,1.172,0.234,2.105,0.703,2.801
	c0.477,0.695,1.141,1.047,1.992,1.055c0.859-0.008,1.527-0.355,2.004-1.043s0.715-1.602,0.715-2.742
	c0-1.148-0.234-2.066-0.703-2.754s-1.141-1.031-2.016-1.031c-0.852,0-1.516,0.332-1.992,0.996
	C88.063,25.535,87.828,26.441,87.828,27.59z M105.734,23.875h-2.39v6.211c-0.008,0.477,0.09,0.809,0.293,0.996
	c0.211,0.18,0.511,0.277,0.902,0.293c0.359,0,0.82-0.023,1.383-0.07v2.742c-0.516,0.078-1.145,0.117-1.887,0.117
	c-1.297,0-2.316-0.297-3.058-0.891c-0.743-0.602-1.11-1.5-1.102-2.695v-6.703h-1.758v-2.602h1.758v-3.047h3.469v3.047h2.39V23.875z
	 M107.914,21.273h3.469V34h-3.469V21.273z M109.648,19.609c-0.343,0-0.66-0.078-0.949-0.234c-0.289-0.164-0.519-0.379-0.691-0.645
	c-0.172-0.273-0.258-0.566-0.258-0.879c0-0.32,0.086-0.617,0.258-0.891c0.172-0.273,0.402-0.488,0.691-0.645
	c0.289-0.164,0.606-0.246,0.949-0.246c0.336,0,0.649,0.082,0.938,0.246c0.289,0.156,0.516,0.371,0.68,0.645
	c0.172,0.273,0.257,0.57,0.257,0.891c0,0.313-0.085,0.605-0.257,0.879c-0.164,0.266-0.391,0.48-0.68,0.645
	C110.297,19.531,109.984,19.609,109.648,19.609z M119.797,34.258c-1.266,0-2.371-0.273-3.317-0.82
	c-0.937-0.555-1.66-1.328-2.168-2.32c-0.5-0.992-0.75-2.141-0.75-3.445s0.25-2.449,0.75-3.434c0.508-0.992,1.231-1.762,2.168-2.309
	c0.946-0.547,2.051-0.82,3.317-0.82c1.265,0,2.367,0.273,3.305,0.82c0.945,0.547,1.671,1.316,2.179,2.309
	c0.516,0.984,0.774,2.129,0.774,3.434s-0.258,2.453-0.774,3.445c-0.508,0.992-1.234,1.766-2.179,2.32
	C122.164,33.984,121.062,34.258,119.797,34.258z M117.078,27.672c0,0.758,0.102,1.43,0.305,2.016
	c0.211,0.578,0.523,1.035,0.937,1.371c0.414,0.336,0.914,0.504,1.5,0.504c0.571,0,1.059-0.164,1.465-0.492
	c0.406-0.336,0.711-0.793,0.914-1.371c0.211-0.578,0.317-1.238,0.317-1.98c0-0.766-0.102-1.445-0.305-2.039
	c-0.203-0.602-0.508-1.07-0.914-1.406c-0.406-0.344-0.899-0.516-1.477-0.516c-0.586,0-1.086,0.168-1.5,0.504
	c-0.414,0.336-0.726,0.801-0.937,1.395C117.18,26.242,117.078,26.914,117.078,27.672z M131.703,34h-3.469V21.273h3.305V23.5h0.141
	c0.289-0.742,0.765-1.324,1.429-1.746c0.664-0.43,1.461-0.645,2.391-0.645c0.883,0,1.652,0.195,2.309,0.586
	c0.664,0.383,1.175,0.934,1.535,1.652c0.359,0.719,0.539,1.566,0.539,2.543V34h-3.445v-7.5c-0.008-0.789-0.215-1.402-0.622-1.84
	c-0.398-0.445-0.957-0.668-1.675-0.668c-0.735,0-1.325,0.234-1.77,0.703c-0.445,0.469-0.668,1.117-0.668,1.945V34z M149.844,25.047
	c-0.078-0.445-0.301-0.801-0.668-1.066c-0.367-0.266-0.84-0.402-1.418-0.41c-0.563,0.008-1.031,0.133-1.406,0.375
	c-0.375,0.234-0.563,0.543-0.563,0.926c0,0.305,0.125,0.566,0.375,0.785c0.258,0.211,0.68,0.375,1.266,0.492l2.273,0.469
	c1.242,0.258,2.164,0.668,2.766,1.23c0.601,0.563,0.906,1.301,0.914,2.215c0,0.828-0.238,1.559-0.715,2.191
	c-0.469,0.633-1.129,1.125-1.98,1.477c-0.852,0.352-1.836,0.527-2.954,0.527c-1.132,0-2.113-0.16-2.941-0.48
	c-0.82-0.328-1.469-0.793-1.945-1.395c-0.469-0.609-0.754-1.328-0.856-2.156h3.492c0.078,0.492,0.309,0.867,0.692,1.125
	c0.39,0.258,0.91,0.391,1.558,0.398c0.641-0.008,1.153-0.129,1.536-0.363c0.382-0.242,0.574-0.566,0.574-0.973
	c0-0.328-0.141-0.598-0.422-0.809c-0.281-0.211-0.719-0.379-1.313-0.504L146,28.68c-1.211-0.242-2.125-0.668-2.742-1.277
	c-0.617-0.609-0.922-1.387-0.914-2.332c0-0.805,0.218-1.504,0.656-2.098c0.438-0.602,1.059-1.063,1.863-1.383
	c0.813-0.32,1.762-0.48,2.848-0.48c1.055,0,1.977,0.16,2.766,0.48s1.406,0.777,1.851,1.371c0.453,0.586,0.711,1.281,0.774,2.086
	H149.844z M161.117,17.031h3.516v7.031h7.359v-7.031h3.539V34h-3.539v-7.031h-7.359V34h-3.516V17.031z M186.477,21.273h3.469V34
	h-3.328v-2.297h-0.141c-0.297,0.758-0.781,1.359-1.453,1.805c-0.671,0.438-1.477,0.656-2.415,0.656
	c-0.843,0-1.589-0.191-2.238-0.574c-0.648-0.391-1.152-0.945-1.512-1.664c-0.359-0.719-0.539-1.566-0.539-2.543v-8.109h3.469v7.5
	c0,0.75,0.199,1.348,0.598,1.793c0.406,0.438,0.949,0.66,1.629,0.668c0.437-0.008,0.843-0.113,1.218-0.316
	c0.375-0.203,0.676-0.504,0.902-0.902s0.34-0.875,0.34-1.43V21.273z M192.711,17.031h3.469v6.375h0.094
	c0.297-0.641,0.734-1.184,1.313-1.629s1.352-0.668,2.32-0.668c0.961,0,1.832,0.25,2.613,0.75c0.781,0.492,1.402,1.23,1.863,2.215
	c0.469,0.977,0.703,2.168,0.703,3.574c0,1.375-0.227,2.559-0.68,3.551c-0.453,0.984-1.07,1.734-1.852,2.25
	c-0.781,0.508-1.664,0.762-2.648,0.762c-0.945,0-1.711-0.215-2.297-0.645c-0.586-0.438-1.031-0.973-1.336-1.605h-0.141V34h-3.422
	V17.031z M196.109,27.59c0,0.773,0.105,1.449,0.316,2.027s0.52,1.027,0.926,1.348s0.891,0.48,1.453,0.48
	c0.859-0.008,1.527-0.355,2.004-1.043s0.715-1.602,0.715-2.742c0-1.148-0.234-2.066-0.703-2.754s-1.141-1.031-2.016-1.031
	c-0.844,0-1.504,0.336-1.98,1.008C196.348,25.547,196.109,26.449,196.109,27.59z M225.172,22.867h0.117l3.492-5.836h3.984
	l-5.18,8.484L232.883,34h-4.078l-3.516-5.836h-0.117L221.656,34h-4.055l5.32-8.484l-5.227-8.484h4.008L225.172,22.867z
	 M264.664,29.102h-4.57v7.055h-3.047v-7.055h-4.359v7.055h-3.07v-7.055h-4.477v-2.414h19.523V29.102z M247.109,20.359
	c0-0.969,0.324-1.816,0.973-2.543s1.555-1.289,2.719-1.688c1.172-0.398,2.52-0.598,4.043-0.598s2.871,0.199,4.043,0.598
	c1.18,0.398,2.098,0.961,2.754,1.688s0.984,1.574,0.984,2.543c0,0.945-0.328,1.773-0.984,2.484
	c-0.656,0.703-1.574,1.246-2.754,1.629c-1.172,0.383-2.52,0.574-4.043,0.574c-1.516,0-2.859-0.191-4.031-0.574
	s-2.082-0.926-2.73-1.629C247.434,22.133,247.109,21.305,247.109,20.359z M250.18,20.359c-0.008,0.742,0.402,1.316,1.23,1.723
	c0.836,0.406,1.98,0.613,3.434,0.621c1.461-0.008,2.605-0.215,3.434-0.621c0.836-0.406,1.254-0.98,1.254-1.723
	c0-0.773-0.418-1.371-1.254-1.793c-0.828-0.422-1.973-0.637-3.434-0.645c-1.453,0.008-2.598,0.223-3.434,0.645
	C250.582,18.988,250.172,19.586,250.18,20.359z M274.227,19.047c-0.008,0.875,0.172,1.723,0.539,2.543
	c0.375,0.813,0.945,1.543,1.711,2.191c0.766,0.641,1.711,1.133,2.836,1.477l-1.523,2.344c-1.164-0.375-2.172-0.922-3.023-1.641
	c-0.844-0.727-1.512-1.586-2.004-2.578c-0.5,1.086-1.188,2.027-2.063,2.824c-0.875,0.789-1.926,1.387-3.152,1.793L266,25.656
	c1.141-0.367,2.098-0.895,2.871-1.582c0.781-0.688,1.359-1.465,1.734-2.332c0.383-0.867,0.574-1.766,0.574-2.695v-0.305h-4.383
	v-2.391h11.719v2.391h-4.289V19.047z M269.469,28.867h3.023v4.523h11.836v2.391h-14.859V28.867z M280.766,14.852h3v15.422h-3V14.852
	z M306.148,29.898h-8.32v6.258h-2.953v-6.258h-8.25v-2.438h19.523V29.898z M289.086,15.695h14.742v2.344h-11.813v1.594h11.367v2.297
	h-11.367v1.617h12.047v2.367h-14.977V15.695z M315.266,20.641c-0.008,1.117,0.188,2.238,0.586,3.363s0.988,2.152,1.77,3.082
	c0.789,0.93,1.746,1.656,2.871,2.18l-1.664,2.344c-1.148-0.531-2.148-1.301-3-2.309c-0.852-1.016-1.527-2.188-2.027-3.516
	c-0.492,1.453-1.18,2.738-2.063,3.855c-0.875,1.109-1.91,1.945-3.105,2.508l-1.734-2.367c1.141-0.531,2.113-1.285,2.918-2.262
	s1.41-2.063,1.816-3.258c0.414-1.203,0.625-2.41,0.633-3.621v-1.313h-4.523v-2.438h11.813v2.438h-4.289V20.641z M321.219,14.828h3
	v8.133h3.141v2.508h-3.141v10.688h-3V14.828z M336.125,18.484c0,0.953,0.176,1.863,0.527,2.73s0.891,1.645,1.617,2.332
	c0.727,0.68,1.637,1.203,2.73,1.57l-1.617,2.344c-1.102-0.406-2.051-0.984-2.848-1.734c-0.789-0.75-1.414-1.633-1.875-2.648
	c-0.469,1.148-1.125,2.141-1.969,2.977c-0.844,0.828-1.871,1.461-3.082,1.898l-1.617-2.344c1.148-0.375,2.102-0.926,2.859-1.652
	c0.766-0.727,1.328-1.559,1.688-2.496c0.367-0.945,0.555-1.945,0.563-3v-2.32h3.023V18.484z M331.906,28.938h3.023v4.453h11.625
	v2.391h-14.648V28.938z M339.125,19.375h4.008v-4.523h2.977v15.75h-2.977v-8.813h-4.008V19.375z M368.328,25.656h-8.25v1.359h5.883
	v5.461h-11.883v1.289h12.445v2.25h-15.375v-5.648h11.859v-1.102h-11.883v-2.25h5.953v-1.359h-8.203v-2.367h19.453V25.656z
	 M351.289,15.438h14.578v6.727h-14.578V15.438z M362.891,19.867v-2.109h-8.672v2.109H362.891z"/>
</svg>
