<svg width="50" height="50" viewBox="0 0 50 50" fill="none" xmlns="http://www.w3.org/2000/svg">
<path d="M38.6935 24.8222C38.6496 18.9318 43.5647 16.0627 43.7842 15.9323C40.9975 11.9111 36.6748 11.346 35.1389 11.3025C31.4964 10.933 27.9856 13.4544 26.1425 13.4544C24.2993 13.4544 21.4029 11.346 18.331 11.4112C14.3814 11.4764 10.6731 13.7369 8.65441 17.2581C4.46341 24.4309 7.60117 34.9728 11.5947 40.7762C13.5914 43.6236 15.9393 46.797 19.0112 46.6884C22.0173 46.5579 23.1364 44.7973 26.7569 44.7973C30.3774 44.7973 31.3867 46.6884 34.5245 46.6231C37.75 46.5797 39.7687 43.7758 41.6996 40.9066C44.0255 37.6463 44.9471 34.4511 44.991 34.2772C44.9252 34.2555 38.7374 31.908 38.6716 24.8439L38.6935 24.8222Z" fill="#111111"/>
<path d="M32.7913 7.4771C34.3931 5.47741 35.5121 2.76044 35.205 0C32.8791 0.108679 29.9388 1.60845 28.2712 3.56466C26.7791 5.28179 25.4625 8.10744 25.7917 10.7592C28.4248 10.9548 31.1017 9.45505 32.7913 7.4771Z" fill="#111111"/>
</svg>
